<svg id="t_copy_2" height="512" viewBox="0 0 64 64" width="512" xmlns="http://www.w3.org/2000/svg" data-name="t copy 2"><circle cx="32" cy="32" fill="#fff" r="22"/><path d="m4 32a28 28 0 1 0 28-28 28 28 0 0 0 -28 28zm50 0a22 22 0 1 1 -22-22 22 22 0 0 1 22 22z" fill="#fa3737"/><g fill="#373737"><path d="m38 50h-12l6-6z"/><path d="m38 14h-12l6 6z"/><path d="m25 39.5h-9v-1a6.8439 6.8439 0 0 1 2.86-5.5576l3.0927-2.209a2.5073 2.5073 0 0 0 1.0473-2.0342v-.6992a2.5 2.5 0 0 0 -5 0v1h-2v-1a4.5 4.5 0 0 1 9 0v.6992a4.5073 4.5073 0 0 1 -1.8848 3.6608l-3.0927 2.2089a4.8408 4.8408 0 0 0 -1.917 2.9311h6.8945z"/><path d="m34.5 39.5a4.505 4.505 0 0 1 -4.5-4.5v-1h2v1a2.5 2.5 0 0 0 5 0v-1a2.5023 2.5023 0 0 0 -2.5-2.5h-3.5v-8h7v2h-5v4h1.5a4.505 4.505 0 0 1 4.5 4.5v1a4.505 4.505 0 0 1 -4.5 4.5z"/><circle cx="28" cy="38.5" r="1"/><path d="m47.917 30-2.417 4.028-2.417-4.028h-1.083v8.5h1v-6.695l2.5 4.167 2.5-4.167v6.695h1v-8.5z"/></g></svg>