<svg xmlns="http://www.w3.org/2000/svg" version="1.1" xmlns:xlink="http://www.w3.org/1999/xlink" width="512" height="512" x="0" y="0" viewBox="0 0 128 128" style="enable-background:new 0 0 512 512" xml:space="preserve" class=""><g><rect width="91.651" height="91.651" x="18.175" y="18.175" fill="#ecf3ff" rx="16" transform="rotate(-45 63.993 64.017)" opacity="1" data-original="#fad271" class=""></rect><g fill="#423e4f"><path d="M34 56.028v32.411c0 2.093 2.063 3.791 4.609 3.791h50.773c4.391 0 6.294-4.572 2.826-6.786L41.434 53.033C38.406 51.1 34 52.875 34 56.028zM93.638 61.6l-2.452-12.194a1.75 1.75 0 0 0-3.432.691l1.646 8.157L51.863 34.3a1.75 1.75 0 0 0-1.883 2.951l37.5 23.936-8.06 1.876a1.75 1.75 0 0 0 .4 3.454 1.771 1.771 0 0 0 .4-.046l12.1-2.824a1.751 1.751 0 0 0 1.318-2.047z" fill="#3c00ff" opacity="1" data-original="#423e4f" class=""></path></g></g></svg>