<svg id="Layer_1" height="512" viewBox="0 0 512 512" width="512" xmlns="http://www.w3.org/2000/svg" data-name="Layer 1"><circle cx="121.541" cy="471.389" fill="#e03e36" r="32.5"/><circle cx="396.541" cy="311.389" fill="#285680" r="32.5"/><path d="m103.2 410.711c1.431 1.408 5.731 5.642 12.232 5.642h.094c6.574.047 10.888-4.227 12.325-5.642l.252-.257c39.723-41.754 113.671-119.468 73.107-196.654l-.042-.079c-16.51-30.8-49.263-50.28-85.48-50.829h-.167-.167c-36.217.549-68.972 20.027-85.522 50.908-40.562 77.182 33.384 154.9 73.111 196.651z" fill="#e03e36"/><path d="m169.54 261.41a54.019 54.019 0 1 0 -54.019 54.018 54.081 54.081 0 0 0 54.019-54.018z" fill="#efeaea"/><path d="m384.153 247.819c1.431 1.408 5.731 5.642 12.232 5.642h.188c6.5 0 10.8-4.234 12.231-5.642l.252-.257c39.728-41.752 113.675-119.468 73.111-196.651l-.042-.079c-16.508-30.802-49.262-50.279-85.479-50.832h-.167-.167c-36.212.553-68.972 20.029-85.523 50.911-40.563 77.184 33.385 154.9 73.112 196.651z" fill="#285680"/><path d="m450.5 98.518a54.019 54.019 0 1 0 -54.018 54.019 54.079 54.079 0 0 0 54.018-54.019z" fill="#efeaea"/><g fill="#cb8252"><path d="m381.449 276.337a37.857 37.857 0 0 0 -22.122 44.56l-25.443 14.945a11 11 0 1 0 11.142 18.969l25.853-15.185a38.034 38.034 0 0 0 25.053 9.461 37.807 37.807 0 1 0 -14.483-72.75zm20.468 49.554a15.808 15.808 0 1 1 8.576-20.645 15.825 15.825 0 0 1 -8.576 20.645z"/><path d="m173.251 430.194-23.195 13.624a39.93 39.93 0 1 0 10.663 19.25l23.674-13.9a11 11 0 0 0 -11.142-18.969zm-34.882 48.727a17.94 17.94 0 1 1 .014-13.73 17.82 17.82 0 0 1 -.014 13.73z"/><path d="m236.909 392.8-30.342 17.822a11 11 0 1 0 11.142 18.969l30.342-17.822a11 11 0 0 0 -11.142-18.969z"/><path d="m300.567 355.411-30.341 17.823a11 11 0 1 0 11.142 18.966l30.341-17.823a11 11 0 0 0 -11.142-18.969z"/></g></svg>