<svg id="Capa_1" enable-background="new 0 0 512 512" height="512" viewBox="0 0 512 512" width="512" xmlns="http://www.w3.org/2000/svg"><g id="Rising"><g><g><path d="m81.71 303.58c-6.057-3.177-14.58-1.688-19.19 5.1l-60 90c-1.64 2.46-2.52 5.36-2.52 8.32v45c0 8.28 6.72 15 15 15h60c8.28 0 15-6.72 15-15v-135c0-9.663-8.19-13.325-8.29-13.42z" fill="#ffdf40"/></g><g><path d="m195 467h-60c-8.284 0-15-6.716-15-15v-105c0-2.961.876-5.856 2.519-8.32l60-90c3.667-5.5 10.503-7.952 16.828-6.036 6.326 1.915 10.653 7.746 10.653 14.356v195c0 8.284-6.716 15-15 15z" fill="#ffdf40"/></g><path d="m81.71 303.58c-6.057-3.177-14.58-1.688-19.19 5.1l-17.52 26.28v132.04h30c8.28 0 15-6.72 15-15v-135c0-9.663-8.19-13.325-8.29-13.42z" fill="#ffbe40"/><path d="m210 452v-195c0-6.61-4.327-12.441-10.653-14.356-6.325-1.916-13.161.536-16.828 6.036l-17.519 26.278v192.042h30c8.284 0 15-6.716 15-15z" fill="#ffbe40"/><g><path d="m315 467h-60c-8.284 0-15-6.716-15-15v-165c0-2.961.876-5.856 2.519-8.32l60-90c3.667-5.5 10.503-7.951 16.827-6.036 6.327 1.915 10.654 7.746 10.654 14.356v255c0 8.284-6.716 15-15 15z" fill="#ffdf40"/></g><path d="m319.347 182.644c-6.324-1.915-13.16.536-16.827 6.036l-17.52 26.279v252.041h30c8.284 0 15-6.716 15-15v-255c0-6.61-4.327-12.441-10.653-14.356z" fill="#ffbe40"/></g></g><g><path d="m435 467h-60c-8.284 0-15-6.716-15-15v-225c0-3.415 1.165-6.727 3.302-9.39l60-74.75c8.852-11.025 26.698-4.734 26.698 9.39v299.75c0 8.284-6.716 15-15 15z" fill="#ffdf40"/></g><path d="m450 152.25c0-14.123-17.846-20.415-26.698-9.39l-18.302 22.801v301.339h30c8.284 0 15-6.716 15-15z" fill="#ffbe40"/><path d="m512 59.91v60.09c0 8.28-6.72 15-15 15s-15-6.72-15-15v-17.35l-95.3 118.74c-4.42 5.51-12.09 7.19-18.41 4.03l-48.15-24.08-52.66 78.98c-4.2 6.3-12.42 8.48-19.19 5.1l-48.15-24.08-52.66 78.98c-4.2 6.3-12.42 8.48-19.19 5.1l-38.29-19.15-9.86-4.93-80.14 120.2v-49.54c0-2.96.88-5.86 2.52-8.32l60-90c3.119-4.592 8.097-6.882 13.11-6.67 4.486.321.114-1.414 54.23 25.65l52.66-78.98c4.2-6.3 12.42-8.48 19.19-5.1l48.15 24.08 52.66-78.98c4.19-6.29 12.42-8.48 19.19-5.1l49.17 24.59 94.85-118.17h-28.73c-8.28 0-15-6.72-15-15s6.72-15 15-15h60c8.19 0 14.94 6.62 15 14.91z" fill="#ff5959"/><path d="m497 45h-60c-8.28 0-15 6.72-15 15s6.72 15 15 15h28.73l-94.85 118.17-49.17-24.59c-6.77-3.38-15-1.19-19.19 5.1l-52.66 78.98-24.86-12.432v33.545l23.29 11.647c6.77 3.38 14.99 1.2 19.19-5.1l52.66-78.98 48.15 24.08c6.32 3.16 13.99 1.48 18.41-4.03l95.3-118.74v17.35c0 8.28 6.72 15 15 15s15-6.72 15-15v-60.09c-.06-8.29-6.81-14.91-15-14.91z" fill="#e63a57"/></svg>