<svg xmlns="http://www.w3.org/2000/svg" version="1.1" xmlns:xlink="http://www.w3.org/1999/xlink" width="512" height="512" x="0" y="0" viewBox="0 0 128 128" style="enable-background:new 0 0 512 512" xml:space="preserve" class=""><g><rect width="91.651" height="91.651" x="18.175" y="18.175" fill="#ffefef" rx="16" transform="rotate(-45 63.993 64.017)" opacity="1" data-original="#fad271" class=""></rect><g fill="#423e4f"><path d="M94.039 51.028v32.411c0 2.093-2.063 3.791-4.609 3.791H38.657c-4.391 0-6.294-4.572-2.826-6.786l50.774-32.411c3.028-1.933 7.434-.158 7.434 2.995zM75.358 31.89l-12.1-2.824a1.75 1.75 0 0 0-.795 3.409l8.059 1.88-37.5 23.937a1.75 1.75 0 1 0 1.883 2.95l37.529-23.958-1.641 8.156a1.751 1.751 0 0 0 1.371 2.06 1.8 1.8 0 0 0 .347.035 1.751 1.751 0 0 0 1.714-1.406l2.452-12.19a1.751 1.751 0 0 0-1.319-2.049z" fill="#ff0000" opacity="1" data-original="#423e4f" class=""></path></g></g></svg>