<svg id="Layer_1" enable-background="new 0 0 512 512" height="512" viewBox="0 0 512 512" width="512" xmlns="http://www.w3.org/2000/svg"><g><path d="m191.107 159.935c-38.685 22.421-64.707 64.268-64.707 112.199.013 8.297-6.704 15.037-15.001 15.042l-96.409.052c-8.324.005-14.971-6.77-14.99-15.094 0-94.735 51.466-177.439 127.958-221.709 7.181-4.156 16.376-1.704 20.524 5.481l48.206 83.492c4.162 7.209 1.621 16.363-5.581 20.537z" fill="#fff500"/><path d="m320.893 159.935c38.685 22.421 64.707 64.268 64.707 112.199-.013 8.297 6.704 15.037 15.001 15.042l96.409.052c8.324.005 14.971-6.77 14.99-15.094 0-94.735-51.466-177.439-127.958-221.709-7.181-4.156-16.376-1.704-20.524 5.481l-48.206 83.492c-4.162 7.209-1.621 16.363 5.581 20.537z" fill="#ff7038"/><path d="m0 272.134c0 94.735 51.466 177.439 127.958 221.709 7.181 4.156 16.376 1.704 20.524-5.481l48.206-83.492c4.162-7.209 1.621-16.363-5.581-20.537-38.685-22.421-64.707-64.268-64.707-112.199z" fill="#ace233"/><path d="m512 272.134c0 94.735-51.466 177.439-127.958 221.709-7.181 4.156-16.376 1.704-20.524-5.481l-48.206-83.492c-4.162-7.209-1.621-16.363 5.581-20.537 38.685-22.421 64.707-64.268 64.707-112.199z" fill="#ff405c"/><path d="m256 16.134c-46.638 0-90.359 12.477-128.018 34.267l63.209 109.481c19.065-11.031 41.199-17.348 64.809-17.348s45.744 6.317 64.809 17.348l63.209-109.481c-37.659-21.79-81.38-34.267-128.018-34.267z" fill="#ffd000"/><path d="m421.048 351.518c-3.067-4.101-75.772-100.825-133.451-134.117-30.163-17.405-68.9-7.033-86.372 23.153-17.4 30.227-7.006 68.959 23.152 86.372 57.678 33.294 177.799 47.873 182.884 48.477 5.958.708 11.765-2.202 14.763-7.4 3.001-5.196 2.617-11.68-.976-16.485z" fill="#f0f5fa"/><path d="m422.024 368.003c3.001-5.196 2.617-11.68-.977-16.485-3.067-4.101-75.772-100.825-133.451-134.117-30.163-17.405-68.9-7.033-86.372 23.153z" fill="#dce1e9"/><path d="m256 142.534c23.61 0 45.744 6.317 64.809 17.348l63.209-109.481c-37.659-21.79-81.38-34.267-128.018-34.267z" fill="#fa0"/></g></svg>